<svg id="Camada_1" data-name="Camada 1" xmlns="http://www.w3.org/2000/svg" viewBox="0 0 132.31 107.18"><defs><style>.cls-1{fill:#0a436d;}</style></defs><path class="cls-1" d="M44.11,68.9a4.67,4.67,0,0,0,4.67-4.67V9.34h28a4.67,4.67,0,1,0,0-9.34H47a4.68,4.68,0,0,0-1.44.25,4.62,4.62,0,0,0-5.87,2.87,4.54,4.54,0,0,0-.25,1.55V64.23A4.68,4.68,0,0,0,44.11,68.9Z" transform="translate(-0.01 0)"/><path class="cls-1" d="M47.8,91.09l-10,5.35L11.17,46.74,33.23,34.89a4.68,4.68,0,1,0-4.43-8.25L3.63,40.16a4.79,4.79,0,0,0-1.09.41h0A4.71,4.71,0,0,0,.26,43.42a4.71,4.71,0,0,0,1,4.71l30.39,56.58h0A4.67,4.67,0,0,0,38,106.62h0a4.94,4.94,0,0,0,.75-.51,4.67,4.67,0,0,0,2-.54l11.51-6.19A4.68,4.68,0,0,0,48.09,91l-.26.14Z" transform="translate(-0.01 0)"/><path class="cls-1" d="M130.23,31.86a4,4,0,0,0-1-.36L108.61,20.44h0L91.35,11.16a4.31,4.31,0,0,0-.9-.69,4,4,0,0,0-5.36,1.58,4.56,4.56,0,0,0-.66.92h0a4.54,4.54,0,0,0-.4,1L52.91,71.89a4.93,4.93,0,0,0-.65.92,4.54,4.54,0,0,0-.41,1.08,3.93,3.93,0,0,0,2.66,5.67L75.12,90.62h0l17.19,9.24a3.93,3.93,0,0,0,1,.77A4,4,0,0,0,98.69,99h0a4.91,4.91,0,0,0,.58-.85,4.51,4.51,0,0,0,.39-1l31.16-58a4.63,4.63,0,0,0,1-1.88A4,4,0,0,0,130.23,31.86ZM94.47,90l-18-9.69h0l-14.76-8L89.27,21.1l18,9.68h0L122,38.71Z" transform="translate(-0.01 0)"/></svg>